<svg width="1200" height="630" viewBox="0 0 1200 630" fill="none" xmlns="http://www.w3.org/2000/svg">
  <rect width="1200" height="630" fill="#EFE4D7"/>
  <rect width="1200" height="630" fill="url(#bg)"/>
  <circle cx="1040" cy="116" r="188" fill="#C8B199" fill-opacity="0.5"/>
  <circle cx="1118" cy="503" r="164" fill="#9FA288" fill-opacity="0.26"/>
  <rect x="62" y="58" width="1076" height="514" rx="28" fill="#FBF7F0" fill-opacity="0.7" stroke="#7D786C" stroke-opacity="0.16"/>
  <rect x="98" y="98" width="168" height="36" rx="18" fill="#384032"/>
  <text x="182" y="121" text-anchor="middle" fill="#F8F2E7" font-family="Georgia, 'Times New Roman', serif" font-size="16" letter-spacing="3">QUIET THOUGHT</text>
  <text x="98" y="203" fill="#241E18" font-family="Georgia, 'Times New Roman', serif" font-size="60" font-weight="700">Can Wars Ever</text>
  <text x="98" y="272" fill="#241E18" font-family="Georgia, 'Times New Roman', serif" font-size="60" font-weight="700">Truly End?</text>
  <text x="98" y="352" fill="#5A5146" font-family="Arial, Helvetica, sans-serif" font-size="27">Power, peace, priorities, and the human cost.</text>
  <text x="98" y="430" fill="#3F4637" font-family="Arial, Helvetica, sans-serif" font-size="22" letter-spacing="1.2">WAR CHANGES FORM. THE QUESTION REMAINS.</text>
  <text x="98" y="523" fill="#8A7D6A" font-family="Arial, Helvetica, sans-serif" font-size="20">Sabino Pereira</text>
  <path d="M763 151C841 151 908 172 964 214C1020 256 1057 316 1076 394C1045 407 1010 414 970 414C880 414 804 390 743 340C681 290 647 227 640 151H763Z" fill="#C6AC8D" fill-opacity="0.78"/>
  <path d="M671 420C737 387 801 370 863 370C939 370 1013 395 1084 444" stroke="#394032" stroke-opacity="0.38" stroke-width="3"/>
  <path d="M700 216L1029 216" stroke="#394032" stroke-opacity="0.18" stroke-width="2"/>
  <path d="M683 259L1059 259" stroke="#394032" stroke-opacity="0.14" stroke-width="2"/>
  <defs>
    <linearGradient id="bg" x1="91" y1="34" x2="1124" y2="610" gradientUnits="userSpaceOnUse">
      <stop stop-color="#F5EEE6"/>
      <stop offset="1" stop-color="#DFCCB2"/>
    </linearGradient>
  </defs>
</svg>
